<?xml version="1.0" encoding="UTF-8"?>
<!DOCTYPE svg PUBLIC "-//W3C//DTD SVG 1.1//EN" "http://www.w3.org/Graphics/SVG/1.1/DTD/svg11.dtd">
<!-- Creator: CorelDRAW -->
<svg xmlns="http://www.w3.org/2000/svg" xml:space="preserve" width="3.01365in" height="2.26271in" style="shape-rendering:geometricPrecision; text-rendering:geometricPrecision; image-rendering:optimizeQuality; fill-rule:evenodd; clip-rule:evenodd"
viewBox="0 0 3.01365 2.26271"
 xmlns:xlink="http://www.w3.org/1999/xlink">
 <defs>
  <style type="text/css">
   <![CDATA[
    .fil1 {fill:#D2AE6D}
    .fil0 {fill:#FEFEFE;fill-rule:nonzero}
   ]]>
  </style>
 </defs>
 <g id="Layer_x0020_1">
  <metadata id="CorelCorpID_0Corel-Layer"/>
  <path class="fil0" d="M-0 1.77713l0.0917048 0 0 0.178796 0.158339 0 0 -0.178796 0.0910474 0 0 0.473705 -0.0910474 0 0 -0.207823 -0.158339 0 0 0.207823 -0.0917048 0 0 -0.473705zm0.442808 0l0.0897285 0 0 0.473705 -0.0897285 0 0 -0.473705zm0.190555 0l0.0897285 0 0 0.387934 0.13261 0 0 0.0857718 -0.222339 0 0 -0.473705zm0.290296 0l0.0897245 0 0 0.387934 0.13261 0 0 0.0857718 -0.222335 0 0 -0.473705zm0.726395 0.08313l-0.0632284 0.0600355c-0.0429961,-0.0453032 -0.0912639,-0.0679568 -0.14504,-0.0679568 -0.0453032,0 -0.0835631,0.0155079 -0.114579,0.0464095 -0.0311142,0.0308977 -0.0466221,0.068945 -0.0466221,0.114248 0,0.0315552 0.00693308,0.0595946 0.0206733,0.084004 0.013748,0.0245197 0.0332126,0.0437638 0.0582835,0.0577324 0.0251772,0.0139606 0.0531064,0.0208898 0.0838938,0.0208898 0.0261733,0 0.0501457,-0.00484253 0.0718072,-0.014626 0.0217717,-0.00978348 0.0456339,-0.0275985 0.0715828,-0.0533268l0.0612442 0.0639961c-0.0349646,0.034193 -0.068067,0.057945 -0.0991812,0.0711418 -0.0311182,0.0133032 -0.0667481,0.0199055 -0.106662,0.0199055 -0.0736733,0 -0.134043,-0.0233189 -0.180992,-0.0700513 -0.0469528,-0.0466221 -0.0703741,-0.106543 -0.0703741,-0.179445 0,-0.0472914 0.0106693,-0.0891773 0.0321103,-0.125906 0.0213347,-0.0367323 0.0519016,-0.0661969 0.0918151,-0.0885198 0.0398071,-0.0223229 0.0826851,-0.0335355 0.12876,-0.0335355 0.0390355,0 0.0766458,0.00824411 0.112925,0.0247402 0.0361811,0.0164921 0.0674056,0.0399095 0.0935828,0.0702639zm0.0850001 -0.08313l0.0957718 0c0.0523387,0 0.0897285,0.00461812 0.111941,0.0139685 0.0223189,0.00934253 0.0401339,0.0249567 0.0536576,0.0466221 0.0135276,0.0216614 0.0203425,0.0472796 0.0203425,0.0769686 0,0.0311221 -0.00747639,0.0571812 -0.0223229,0.0780749 -0.0149567,0.021 -0.0373898,0.0368308 -0.0674056,0.0475001l0.111831 0.210571 -0.0985238 0 -0.106441 -0.200567 -0.00912206 0 0 0.200567 -0.0897285 0 0 -0.473705zm0.0897285 0.18539l0.0285867 0c0.0290276,0 0.0489292,-0.00374016 0.0599213,-0.0113228 0.0108898,-0.00759056 0.0163858,-0.0201221 0.0163858,-0.0377205 0,-0.0103307 -0.00274804,-0.0193504 -0.00813387,-0.0270473 -0.00538583,-0.00769292 -0.0126496,-0.0131969 -0.0217717,-0.0164961 -0.0090197,-0.00340552 -0.0257284,-0.00505512 -0.0500316,-0.00505512l-0.0249567 0 0 0.0976419zm0.287646 -0.18539l0.25863 0 0 0.0884056 -0.168902 0 0 0.0851103 0.168902 0 0 0.0870907 -0.168902 0 0 0.124689 0.168902 0 0 0.0884096 -0.25863 0 0 -0.473705zm0.591139 0.0644371l-0.0668544 0.058941c-0.0234213,-0.0325512 -0.0472796,-0.0488268 -0.0715828,-0.0488268 -0.0118701,0 -0.0215512,0.00319292 -0.0290276,0.00946064 -0.00758269,0.00637402 -0.0113268,0.0135197 -0.0113268,0.021441 0,0.0079134 0.00264567,0.0155 0.00803151,0.0225394 0.00736221,0.00945671 0.0294646,0.029689 0.0663032,0.0608032 0.0344134,0.028815 0.0553072,0.0469607 0.0626733,0.0544371 0.0182559,0.0184725 0.0312323,0.0360591 0.0389252,0.0528859 0.0075945,0.016937 0.011441,0.0352993 0.011441,0.0552048 0,0.0389213 -0.0134173,0.0709214 -0.0403583,0.096323 -0.0268268,0.0252874 -0.0619056,0.0379371 -0.105232,0.0379371 -0.033752,0 -0.0631103,-0.00825198 -0.0881852,-0.0247481 -0.0250709,-0.0165984 -0.046626,-0.0425473 -0.0644332,-0.0779568l0.0759804 -0.0457442c0.0228701,0.0417875 0.0491497,0.0626772 0.0788387,0.0626772 0.015504,0 0.0285945,-0.00450394 0.0391457,-0.0135276 0.0105591,-0.00901182 0.0158347,-0.0194607 0.0158347,-0.0312245 0,-0.0106693 -0.0039567,-0.021441 -0.0119882,-0.0322205 -0.0079134,-0.0106654 -0.0255079,-0.0271615 -0.0526654,-0.0492638 -0.0516812,-0.042004 -0.0850001,-0.0744371 -0.100063,-0.0973112 -0.0150669,-0.0228701 -0.0226496,-0.04563 -0.0226496,-0.0683938 0,-0.0328819 0.0125315,-0.0610276 0.0374922,-0.0844489 0.0250709,-0.0235315 0.0559725,-0.0352953 0.092693,-0.0352953 0.0236418,0 0.0461851,0.00549607 0.0675158,0.0163819 0.021441,0.0109961 0.0445355,0.0309016 0.0694922,0.0599292zm0.0481615 -0.0644371l0.261926 0 0 0.089067 -0.0864292 0 0 0.384638 -0.0917048 0 0 -0.384638 -0.0837914 0 0 -0.089067z"/>
  <path class="fil1" d="M1.50682 0.737375c0.0312678,0 0.0566142,0.0253465 0.0566142,0.0566142 0,0.0312638 -0.0253465,0.0566103 -0.0566142,0.0566103 -0.0312638,0 -0.0566103,-0.0253465 -0.0566103,-0.0566103 0,-0.0312678 0.0253465,-0.0566142 0.0566103,-0.0566142zm0.0598032 0.263788c-0.012248,0.0442756 -0.030189,0.123646 -0.030189,0.164618 0,0.0163544 -0.0132559,0.0296142 -0.0296142,0.0296142 -0.0163544,0 -0.0296103,-0.0132599 -0.0296103,-0.0296142 0,-0.0410079 -0.0179488,-0.120299 -0.030189,-0.164614 -0.0516969,0.0229488 -0.087756,0.0747245 -0.087756,0.134929 0,0.239662 -0.196091,0.435749 -0.435749,0.435749l0 0 0 -0.0357874c0.0666851,0 0.121252,-0.0545631 0.121252,-0.121248l0 -0.21328c0,-0.122358 0.100106,-0.222469 0.222465,-0.222469l-0.0484134 0c-0.122358,0 -0.222469,-0.10011 -0.222469,-0.222469l0 -0.599556c0,-0.0666851 -0.0545591,-0.121248 -0.121248,-0.121248l0 -0.0357874 0 0c0.239662,0 0.435745,0.196095 0.435745,0.435745l0 0.311556 3.93701e-006 0c0,0.0837206 0.052504,0.155169 0.126382,0.18324 0.0043189,-0.0345906 0.0338268,-0.0613505 0.0695867,-0.0613505 0.0357638,0 0.0652717,0.0267599 0.0695906,0.0613544 0.073882,-0.0280709 0.12639,-0.0995198 0.12639,-0.183244l0 -0.311556c0,-0.23965 0.196087,-0.435745 0.435749,-0.435745l0 0 0 0.0357874c-0.0666891,0 -0.121252,0.0545631 -0.121252,0.121248l0 0.599556c0,0.122358 -0.100106,0.222469 -0.222465,0.222469l-0.0484174 0c0.122358,0 0.222473,0.10011 0.222473,0.222469l0 0.21328c0,0.0666851 0.0545591,0.121248 0.121248,0.121248l0 0.0357874 0 0c-0.239658,0 -0.435745,-0.196087 -0.435745,-0.435749 0,-0.0602087 -0.0360709,-0.111988 -0.0877678,-0.134933z"/>
 </g>
</svg>
