<svg width="1792" height="742" viewBox="0 0 1792 742" fill="none" xmlns="http://www.w3.org/2000/svg">
<path d="M492.7 304.8H541.6L569.2 400.5L600.4 304.8H649.6L680.8 400.5L708.4 304.8H757.3L706.6 462H660.4L625 360.9L589.6 462H543.4L492.7 304.8ZM870.965 466.5C855.565 466.5 841.465 463.9 828.665 458.7C815.865 453.3 804.765 445.9 795.365 436.5C786.165 427.1 778.965 415.9 773.765 402.9C768.565 389.7 765.965 375.4 765.965 360C765.965 344.6 768.565 330.4 773.765 317.4C778.965 304.4 786.165 293.2 795.365 283.8C804.765 274.2 815.865 266.8 828.665 261.6C841.465 256.2 855.565 253.5 870.965 253.5C892.565 253.5 910.965 257.9 926.165 266.7C941.565 275.3 953.865 287 963.065 301.8L928.565 327.9C922.165 318.3 914.665 310.7 906.065 305.1C897.465 299.5 886.065 296.7 871.865 296.7C862.865 296.7 854.765 298.3 847.565 301.5C840.565 304.7 834.565 309.2 829.565 315C824.765 320.6 820.965 327.3 818.165 335.1C815.565 342.7 814.265 351 814.265 360C814.265 369 815.565 377.4 818.165 385.2C820.965 392.8 824.765 399.5 829.565 405.3C834.565 410.9 840.565 415.3 847.565 418.5C854.765 421.7 862.865 423.3 871.865 423.3C886.065 423.3 897.465 420.5 906.065 414.9C914.665 409.3 922.165 401.7 928.565 392.1L963.065 418.2C953.865 433 941.565 444.8 926.165 453.6C910.965 462.2 892.565 466.5 870.965 466.5ZM1094.87 445.8C1089.27 451.6 1082.47 456.4 1074.47 460.2C1066.67 464 1057.87 465.9 1048.07 465.9C1037.27 465.9 1027.27 464 1018.07 460.2C1008.87 456.2 1000.87 450.7 994.073 443.7C987.473 436.5 982.273 427.8 978.473 417.6C974.873 407.4 973.073 396 973.073 383.4C973.073 370.8 974.873 359.4 978.473 349.2C982.273 339 987.473 330.4 994.073 323.4C1000.87 316.2 1008.87 310.7 1018.07 306.9C1027.27 302.9 1037.27 300.9 1048.07 300.9C1057.87 300.9 1066.67 302.8 1074.47 306.6C1082.47 310.4 1089.27 315.3 1094.87 321.3V304.8H1140.77V462H1094.87V445.8ZM1059.47 425.7C1066.67 425.7 1073.47 424 1079.87 420.6C1086.47 417 1091.47 412 1094.87 405.6V361.5C1091.47 354.9 1086.47 349.9 1079.87 346.5C1073.47 342.9 1066.67 341.1 1059.47 341.1C1048.07 341.1 1038.57 344.7 1030.97 351.9C1023.37 359.1 1019.57 369.6 1019.57 383.4C1019.57 397.2 1023.37 407.7 1030.97 414.9C1038.57 422.1 1048.07 425.7 1059.47 425.7ZM1173.07 304.8H1218.97V327.3C1223.57 318.9 1229.37 312.4 1236.37 307.8C1243.37 303.2 1251.57 300.9 1260.97 300.9H1266.37V344.1C1260.97 344.1 1255.77 344.5 1250.77 345.3C1245.97 345.9 1241.47 347.2 1237.27 349.2C1233.07 351.2 1229.37 354 1226.17 357.6C1223.17 361.2 1220.77 365.9 1218.97 371.7V462H1173.07V304.8ZM1394.87 445.8C1389.27 451.6 1382.47 456.4 1374.47 460.2C1366.67 464 1357.87 465.9 1348.07 465.9C1337.27 465.9 1327.27 464 1318.07 460.2C1308.87 456.2 1300.87 450.7 1294.07 443.7C1287.47 436.5 1282.27 427.8 1278.47 417.6C1274.87 407.4 1273.07 396 1273.07 383.4C1273.07 370.8 1274.87 359.4 1278.47 349.2C1282.27 339 1287.47 330.4 1294.07 323.4C1300.87 316.2 1308.87 310.7 1318.07 306.9C1327.27 302.9 1337.27 300.9 1348.07 300.9C1357.87 300.9 1366.67 302.8 1374.47 306.6C1382.47 310.4 1389.27 315.3 1394.87 321.3V249H1440.77V462H1394.87V445.8ZM1359.47 425.7C1366.67 425.7 1373.47 424 1379.87 420.6C1386.47 417 1391.47 412 1394.87 405.6V361.5C1391.47 354.9 1386.47 349.9 1379.87 346.5C1373.47 342.9 1366.67 341.1 1359.47 341.1C1348.07 341.1 1338.57 344.7 1330.97 351.9C1323.37 359.1 1319.57 369.6 1319.57 383.4C1319.57 397.2 1323.37 407.7 1330.97 414.9C1338.57 422.1 1348.07 425.7 1359.47 425.7ZM1472.77 416.1H1518.97V462H1472.77V416.1ZM1552.8 307.5H1590.9V462H1552.8V307.5ZM1552.2 241.8H1591.2V281.4H1552.2V241.8ZM1700.41 466.2C1687.01 466.2 1675.21 464 1665.01 459.6C1654.81 455 1646.21 449 1639.21 441.6C1632.41 434 1627.21 425.3 1623.61 415.5C1620.21 405.7 1618.51 395.5 1618.51 384.9C1618.51 374.3 1620.21 364.2 1623.61 354.6C1627.21 344.8 1632.41 336.2 1639.21 328.8C1646.21 321.2 1654.81 315.2 1665.01 310.8C1675.21 306.2 1687.01 303.9 1700.41 303.9C1713.81 303.9 1725.61 306.2 1735.81 310.8C1746.01 315.2 1754.51 321.2 1761.31 328.8C1768.31 336.2 1773.51 344.8 1776.91 354.6C1780.51 364.2 1782.31 374.3 1782.31 384.9C1782.31 395.5 1780.51 405.7 1776.91 415.5C1773.51 425.3 1768.31 434 1761.31 441.6C1754.51 449 1746.01 455 1735.81 459.6C1725.61 464 1713.81 466.2 1700.41 466.2ZM1700.41 337.8C1694.21 337.8 1688.41 338.9 1683.01 341.1C1677.81 343.3 1673.31 346.5 1669.51 350.7C1665.71 354.7 1662.71 359.6 1660.51 365.4C1658.31 371.2 1657.21 377.7 1657.21 384.9C1657.21 392.1 1658.31 398.6 1660.51 404.4C1662.71 410.2 1665.71 415.2 1669.51 419.4C1673.31 423.6 1677.81 426.8 1683.01 429C1688.41 431.2 1694.21 432.3 1700.41 432.3C1706.61 432.3 1712.31 431.2 1717.51 429C1722.91 426.8 1727.51 423.6 1731.31 419.4C1735.11 415.2 1738.11 410.2 1740.31 404.4C1742.51 398.6 1743.61 392.1 1743.61 384.9C1743.61 377.7 1742.51 371.2 1740.31 365.4C1738.11 359.6 1735.11 354.7 1731.31 350.7C1727.51 346.5 1722.91 343.3 1717.51 341.1C1712.31 338.9 1706.61 337.8 1700.41 337.8Z" fill="currentColor"/>
<rect y="409.818" width="76.0257" height="334.992" rx="38.0129" transform="rotate(-90 0 409.818)" fill="#119B77" fill-opacity="0.8"/>
<rect width="76.0116" height="220.035" rx="38.0058" transform="matrix(-0.715387 0.698728 -0.698468 -0.715641 350.744 372.466)" fill="#FFA800" fill-opacity="0.8"/>
<rect width="76.0122" height="220.033" rx="38.0061" transform="matrix(-0.698468 -0.715641 -0.715387 0.698728 350.744 372.466)" fill="#FDD209" fill-opacity="0.8"/>
<rect x="331.457" width="76" height="335" rx="38" fill="#119B77" fill-opacity="0.8"/>
<rect x="368.796" y="350.752" width="76" height="220" rx="38" transform="rotate(-134.315 368.796 350.752)" fill="#FFA800" fill-opacity="0.8"/>
<rect width="76" height="220" rx="38" transform="matrix(0.715514 -0.698598 -0.698598 -0.715514 368.796 350.752)" fill="#FDD209" fill-opacity="0.8"/>
<rect x="409.752" y="741.505" width="76" height="335" rx="38" transform="rotate(180 409.752 741.505)" fill="#119B77" fill-opacity="0.8"/>
<rect x="372.413" y="390.752" width="76" height="220" rx="38" transform="rotate(45.6854 372.413 390.752)" fill="#FFA800" fill-opacity="0.8"/>
<rect width="76" height="220" rx="38" transform="matrix(-0.715514 0.698598 0.698598 0.715514 372.413 390.752)" fill="#FDD209" fill-opacity="0.8"/>
</svg>
