<?xml version="1.0" encoding="utf-8"?>
<!-- Generator: Adobe Illustrator 26.5.0, SVG Export Plug-In . SVG Version: 6.00 Build 0)  -->
<svg version="1.1" id="Layer_1" xmlns="http://www.w3.org/2000/svg" xmlns:xlink="http://www.w3.org/1999/xlink" x="0px" y="0px"
	 viewBox="0 0 474.6 165" style="enable-background:new 0 0 474.6 165;" xml:space="preserve">
<style type="text/css">
	.st0{fill:url(#SVGID_1_);}
	.st1{fill:#ED2127;}
	.st2{fill:#0054A0;}
	.st3{fill:#EC2027;}
	.st4{fill:none;stroke:#0054A0;}
	.st5{font-family:'ArialMT';}
	.st6{font-size:9.7px;}
	.st7{display:none;}
	.st8{display:inline;fill:#0054A0;}
	.st9{font-family:'Montserrat-Bold';}
	.st10{font-size:31.0536px;}
	.st11{display:inline;fill:#ED2127;}
	.st12{font-family:'Arial-Black';}
</style>
<linearGradient id="SVGID_1_" gradientUnits="userSpaceOnUse" x1="215.85" y1="57.7098" x2="385.58" y2="57.7098" gradientTransform="matrix(1 0 0 -1 0 165.8898)">
	<stop  offset="0" style="stop-color:#FFFFFF"/>
	<stop  offset="0.111" style="stop-color:#FFFAFA"/>
	<stop  offset="0.245" style="stop-color:#FDEBEC"/>
	<stop  offset="0.391" style="stop-color:#FBD3D4"/>
	<stop  offset="0.546" style="stop-color:#F9B0B3"/>
	<stop  offset="0.707" style="stop-color:#F58588"/>
	<stop  offset="0.871" style="stop-color:#F15054"/>
	<stop  offset="1" style="stop-color:#ED2127"/>
</linearGradient>
<path class="st0" d="M366.9,87.9c0,0,2.1,0.2,4.5-1c1.3-0.6,2.7-1.9,3.9-3.3l10.4-11.3l-3.4-4.4l-20.5,23.5l-0.1,2.5l-2,0L347.3,108
	l-39.8-17.3v4.9h-15.8l-35,36.8l-27.5-9.7l-13.3,11.1l6.8,9.6l8.5-7.5l29.7,12.6l36.6-39.2l51.3,21.2l33-35.9l-14.9-0.1
	C366.8,94.5,366.9,87.9,366.9,87.9z M310.9,93.8v-1.7l3.9,1.7H310.9z"/>
<path class="st1" d="M279.4,88.2c0,0,5.5,0.6,5.5-4.8s-1.4-32.2-1.4-32.2l-17.7,43.4h-4l-17.5-42.3l-2,30c0,0-0.5,5,2.4,5.5
	s4.5,0.4,4.5,0.4v6.4h-21.9v-6.4c0,0,7,1.6,7.1-5s2.9-40.5,2.9-40.5s1.4-4.1-6.3-4.2v-6.3h20.7l15.6,38.9L283,32.2h20.3v6.5
	c0,0-6.5-0.9-6.2,3.8c0.4,4.7,2.3,41.2,2.3,41.2s-0.3,4,2.8,4.1s4,0.4,4,0.4v6.4h-29.4v-6.4 M83.7,39.4H203V44H83.7V39.4z"/>
<path class="st2" d="M44.3,18.5h8.2V128h-8.2V18.5z"/>
<path class="st1" d="M52.5,33.2c0,0,5.5,0.9,7.2,10.9s10.9,7.7,10.9,7.7s8.9-2.3,4.7-14.1c0,0-3.9-10.9-22.8-12.1
	C52.5,25.7,52.5,33.2,52.5,33.2z M44.3,25.4c0,0-13.8-0.1-21.1,9s-5,17.3-4.3,21.7c0,0,1.8,8.8,13.5,15.9c0,0,4.7,3.1,12,5.9
	s15,6.1,17,10.6s5.1,17.1-8.9,20.9v7.9c0,0,9-0.4,15.1-4.8s11.1-9.6,11.6-18.5s0.1-10.5-3.9-17.9c0,0-6.1-9.8-22.8-15.9
	s-20.2-10.9-19-18.1s8.7-9.4,10.8-9.4L44.3,25.4L44.3,25.4z M44.3,110.2c0,0-10-0.6-10.7-8.7c-1-8.1-3.8-14.4-11.3-13.1
	c-7.5,1.3-7.4,9.1-6.6,12.2c0.8,3.1,1.5,6.9,10.1,12.1s17,4.8,18.5,4.8C44.3,117.5,44.3,110.2,44.3,110.2z"/>
<path class="st2" d="M126.5,49.9H151v4.9l-4.6,0.5c0,0-2.3,0.1-1.1,3s8.8,19.9,8.8,19.9l8.8-20.5c0,0,1.1-2.3-1.9-2.5l-3.4-0.3v-5
	h52l0.9,11.9l-4.7-0.1c0,0,0.3-5.5-3.3-5.6c-3.6-0.2-12.9,0-12.9,0v12.2h8.9c0,0,3.7,0.1,3.7-3.5v-1.4h4.9v15.5h-4.9v-1.6
	c0,0,0.6-3.1-3.4-3.1h-9.2v10.5c0,0-0.3,1.9,1.9,1.9h10.5c0,0,5.2,0.1,5.5-6.4h4.8l-1,12.7h-38.8v-5h1.9c0,0,3.9,0.4,3.9-3.7V59.3
	c0,0,0.7-4.3-4.1-4.3c0,0-3.2-0.2-5,4.6s-14.7,33.7-14.7,33.7h-6l-15.9-35.3c0,0-1.3-3.4-6.2-3.2L126.5,49.9L126.5,49.9z
	 M368.1,49.5h25.2v5h-2.6c0,0-3.4,0.1-1.8,2c1.6,2,5.4,7.5,5.4,7.5l6.5-7.3c0,0,1.9-2-0.6-2.2l-3-0.1v-5h18.4v4.9
	c0,0-3.3-0.4-6.2,2.4s-11.2,12.2-11.2,12.2l12,16.4c0,0,2.1,3.1,7,3.1v5.1h-23.1v-5.1c0,0,5.5,0.8,3.7-1.6l-7.1-9.6l-7.8,8.7
	c0,0-2.8,2.2,1.3,2.4h2.3v5.1h-18.6v-4.8c0,0,3.4-0.1,5.6-1.9s13.6-14.5,13.6-14.5L375,56.9c0,0-1.9-2.8-6.9-2.3
	C368.1,54.5,368.1,49.5,368.1,49.5z M129.8,84.9c-1.4-3.4-13.7-35.3-13.7-35.3h-12.2c0,0,1.3,2,0.8,3.1
	c-0.5,1.1-11.2,30.2-11.2,30.2s-0.8,4.7-3.9,4.7h-3.2v5.3h19.2v-5c0,0-4.9,0.2-5.6-0.6s-0.9-1-0.2-2.6s2.5-6.9,2.5-6.9h12.3l3.1,7.3
	c0,0,1,2.6-1.1,2.7s-4.6,0-4.6,0v5.2h23.2v-5C135.3,87.8,131.2,88.3,129.8,84.9z M104.9,71.7l3.7-10.3l4.1,10.3H104.9z"/>
<path class="st3" d="M394.3,52.7l1.6-1.8v4.4h3.9l-5.4,6.5l-3.8-4.8l1.2-1.6h2.4L394.3,52.7z"/>
<path class="st1" d="M401.6,72.1l-2.2-3.2l9.8-10.7c0,0,2.8-3.2,7.4-2.9v-6.9h-18l11.1-13.1l-14.2-14.3l56.3-12.9l-13.2,53.2
	l-14.1-14L401.6,72.1z"/>
<path class="st3" d="M387.5,87.2c0,0-3,0.2-4.4-0.3l7.2-8.1l2.2,2.8L387.5,87.2L387.5,87.2z"/>
<path class="st2" d="M355.1,84.9c-1.5-3.4-13.7-35.3-13.7-35.3h-12.2c0,0,1.3,2,0.9,3.1c-0.5,1.1-11.2,30.2-11.2,30.2
	s-0.8,4.7-3.9,4.7h-3.1v5.3h19.2v-5c0,0-4.9,0.2-5.5-0.6s-0.9-1-0.2-2.6s2.5-6.9,2.5-6.9h12.3l3.1,7.3c0,0,1,2.6-1.1,2.7
	s-4.6,0-4.6,0v5.2h23.1v-5C360.6,87.8,356.6,88.3,355.1,84.9L355.1,84.9z M330.2,71.7l3.7-10.3l4.1,10.3H330.2z"/>
<circle class="st4" cx="461.4" cy="16.2" r="6.1"/>
<text transform="matrix(1 0 0 1 457.9218 19.2177)" class="st2 st5 st6">R</text>
<text transform="matrix(1 0 0 1 86.5801 130.3693)" class="st7"><tspan x="0" y="0" class="st8 st9 st10">i</tspan><tspan x="9.3" y="0" class="st8 st9 st10">Pro</tspan><tspan x="65.8" y="0" class="st11 st12 st10">Nation</tspan></text>
</svg>
